<svg version="1.2" xmlns="http://www.w3.org/2000/svg" viewBox="0 0 218 263" width="218" height="263"><style>.a{fill:#f8f0dc}.b{fill:#f5b114}.c{fill:#ffe278}</style><path class="a" d="m27.8 134.1c0 0 36.6-1.5 44.4-61.8 7.1-53.5 68.6-29.1 86.4-7.8 23.1 27.7 10.8 75.2 40.6 81.2 29.9 6 10.4 72.9-34.9 66.5-56.3-8-42.7 25.1-59.6 39.1-12.1 10-61.9 0.3-63.6-36.1-1.4-30.7-14.2-30.6-23.4-34.1-13.1-5-21.4-41.3 10.1-47z"/><path class="b" d="m139.1 57.9c-0.4-0.7-0.4-1.4-0.2-2.1 0.2-0.7 0.7-1.3 1.3-1.6l23.8-13.8c1.4-0.8 3.2-0.3 3.9 1.1l1.1 1.9c0.7 1.4 0.1 3.2-1.4 3.9l-24.8 11.7c-0.7 0.4-1.4 0.4-2.1 0.2-0.7-0.2-1.3-0.7-1.6-1.3z"/><path class="b" d="m130 48.3q-0.3-0.2-0.4-0.5-0.2-0.3-0.2-0.7-0.1-0.3 0-0.7 0.2-0.3 0.4-0.6l11.3-13.8c0.4-0.4 0.8-0.6 1.3-0.7 0.5 0 1 0.1 1.4 0.4l1.1 1q0.3 0.2 0.5 0.5 0.2 0.4 0.2 0.8 0 0.3-0.2 0.7-0.1 0.3-0.4 0.6l-12.4 12.9c-0.3 0.3-0.8 0.5-1.3 0.6-0.5 0-0.9-0.2-1.3-0.5z"/><path class="b" d="m117.8 47.7c-1.5-0.2-2.6-1.8-2.4-3.7l3.6-33.8c0.2-2.1 1.7-3.6 3.3-3.5l2.3 0.3c1.6 0.1 2.6 1.9 2.3 4l-5.8 33.5c-0.3 1.9-1.8 3.3-3.3 3.2z"/><path class="c" d="m162.3 178.6l-38.1-37.6-7.5 7.6 38.1 37.6z"/><path class="b" d="m176.9 188.7l-29.7-29.3c-0.1-0.1-0.4-0.1-0.6 0l-11.2 11.4c-0.2 0.2-0.2 0.4 0 0.6l29.6 29.3c0.2 0.1 0.5 0.1 0.6 0l11.3-11.4c0.1-0.1 0.1-0.4 0-0.6z"/><path class="b" d="m90.4 159.9c26.3 0 47.5-21.2 47.5-47.5 0-26.2-21.2-47.4-47.5-47.4-26.2 0-47.4 21.2-47.4 47.4 0 26.3 21.2 47.5 47.4 47.5z"/><path class="a" d="m90.4 152.2c22 0 39.8-17.8 39.8-39.8 0-21.9-17.8-39.7-39.8-39.7-21.9 0-39.7 17.8-39.7 39.8 0 21.9 17.8 39.7 39.7 39.7z"/></svg>